<svg width="281" height="78" viewBox="0 0 281 78" fill="none" xmlns="http://www.w3.org/2000/svg">
<g clip-path="url(#clip0_782_2991)">
<path d="M133.9 58.1V19.1H126.6V35.5H107.5V19.2H100.2V58.2H107.5V42.4H126.6V58.1H133.9ZM174.2 19.2V41.5C174.2 48.2 170.7 52.2 164.7 52.2C158.6 52.2 154.6 48.5 154.6 41.5V19.2H147.3V41.5C147.3 53.2 155.3 58.9 164.6 58.9C174.4 58.9 181.5 53 181.5 41.5V19.2H174.2ZM228.7 23.9C224.7 19.9 219.5 17.9 214.2 17.9C200.5 17.9 193.6 28 193.6 39C193.6 49.2 199.6 58.9 214.2 58.9C221 58.9 225.9 56.3 229.7 51.9V35.5H213V42.1H223V49C219.9 51.4 217.3 52.1 214.2 52.1C204.5 52.1 200.8 45.5 200.8 39.1C200.8 31.1 205.9 24.7 214.2 24.7C217.6 24.7 221.5 26.1 224.1 28.6L228.7 23.9ZM260.6 18.3C274 18.3 280.7 28.6 280.6 38.8C280.5 48.9 274.3 58.9 260.6 58.9C246.9 58.9 240.6 49.1 240.6 38.8C240.6 28.6 247.2 18.3 260.6 18.3ZM260.6 25C251.4 25 247.6 32.4 247.8 39C248 45.4 251.4 52.2 260.6 52.2C269.8 52.2 273.2 45.3 273.3 38.9C273.5 32.4 269.8 25 260.6 25Z" fill="#2E85EC"/>
<path d="M74.5 22.4C71.7 18.3 68.2 16.2 65.2 15.7C65.1 15.7 64.9 15.7 64.8 15.6C64.7 15.6 64.7 15.6 64.6 15.6C63.4 15.4 62.1 15.4 60.9 15.5C57.2 15.7 47.9 18.3 47.9 34C47.9 34 40.5 34.2 33.7 34C32.7 34 22.6 34.1 22.6 41.3C22.6 43.1 22.6 45.3 22.4 47.3C22.3 47.8 22.2 48.3 22.1 48.8C22.1 48.9 22 49.1 22 49.2C22 49.3 22 49.3 21.9 49.4C21.7 50 21.5 50.5 21.2 51C21.2 51 21.2 51 21.2 51.1C21.1 51.2 21.1 51.3 21 51.4L20.9 51.5C20.3 52.3 19.4 53 18.3 53.3C18.2 53.3 18 53.4 17.9 53.4H17.8C17.1 53.6 16.3 53.6 15.3 53.6C10.3 53.2 6.9 48.9 6.9 38.4C7 20.2 22.6 6.3 40 6.3C50.6 6.3 58.3 11.4 60.9 14C64.7 14 68.6 14.6 71.6 17.2C69.8 14.1 66 10.4 65.6 10C58.5 3.4 48.8 0 39.8 0C17.9 0 0 18.3 0 38.5C0 43.1 1.2 50.6 4 54.8C6.8 58.9 10.3 61 13.2 61.5C13.3 61.5 13.8 61.6 13.8 61.6C15 61.8 16.3 61.8 17.5 61.7C17.7 61.7 18 61.6 18.3 61.6C19.6 61.4 20.8 61.1 21.6 60.7C26.4 58.4 28.5 54.3 29.3 49.5C30 47.1 30.5 42.5 30.5 39.1L47.7 38.8C47.7 38.8 52.3 39.4 55.8 35.8C55.8 31.6 55.7 28.6 57.1 26.1C57.1 26.1 57.4 25.6 57.5 25.6C58.1 24.8 59 24.1 60.1 23.8C60.2 23.8 60.6 23.7 60.6 23.7C61.3 23.5 62.1 23.5 63.1 23.5C68.1 23.9 71.5 28.2 71.5 38.7C71.5 57 55.9 70.9 38.5 71C27.9 71 20.2 65.9 17.6 63.3C13.8 63.3 9.9 62.7 6.9 60.1C8.7 63.2 12.5 66.9 12.9 67.3C20 73.9 29.7 77.4 38.7 77.4C60.6 77.4 78.5 59.1 78.5 38.9C78.5 34.1 77.3 26.6 74.5 22.4Z" fill="#2E85EC"/>
<path d="M64.4 15.7C63.6 15.6 60.9 15.3 58.6 15.8C57.5 16.1 56.1 16.6 55.2 17.1C53.8 17.9 51.8 19.3 50.3 22.2C48.9 24.8 47.7 28.3 47.7 33.6H30.6C30.6 30.6 30.6 24.4 30.6 24.4V15.5C30.6 15.5 22.4 18.4 22.4 25.3C22.4 32 22.4 42.7 22.4 46.6C22.4 52.7 20.4 61.5 13.3 61.5C13.3 61.5 14.1 61.7 15.3 61.7C16.5 61.7 18.1 61.6 19.6 61.3C20.7 61.1 22 60.7 23.1 60C25.4 58.6 27.7 56.5 29.2 52.5C30.1 49.9 30.6 46.4 30.6 42.1C30.6 41.7 30.6 41.3 30.6 40.8H47.7C47.7 48 47.7 56.6 47.7 58.9C47.7 59 47.7 61.7 47.7 61.7C47.7 61.7 55.8 58.8 55.8 51.9C55.8 47.5 55.8 33 55.8 30.5C55.8 30.1 55.8 29.7 55.8 29.3C56 23.3 58.1 15.7 64.7 15.7C64.9 15.8 64.5 15.7 64.4 15.7Z" fill="#2E85EC"/>
</g>
<defs>
<clipPath id="clip0_782_2991">
<rect width="280.6" height="77.2" fill="white"/>
</clipPath>
</defs>
</svg>
