<?xml version="1.0" encoding="UTF-8" standalone="no"?>
<svg
   xmlns:dc="http://purl.org/dc/elements/1.1/"
   xmlns:cc="http://creativecommons.org/ns#"
   xmlns:rdf="http://www.w3.org/1999/02/22-rdf-syntax-ns#"
   xmlns:svg="http://www.w3.org/2000/svg"
   xmlns="http://www.w3.org/2000/svg"
   xmlns:sodipodi="http://sodipodi.sourceforge.net/DTD/sodipodi-0.dtd"
   xmlns:inkscape="http://www.inkscape.org/namespaces/inkscape"
   width="78.5"
   height="77.400002"
   viewBox="0 0 78.5 77.400002"
   fill="none"
   version="1.1"
   id="svg15"
   sodipodi:docname="hugo-logo-no-text.svg"
   inkscape:version="1.0.2-2 (e86c870879, 2021-01-15)">
  <metadata
     id="metadata19">
    <rdf:RDF>
      <cc:Work
         rdf:about="">
        <dc:format>image/svg+xml</dc:format>
        <dc:type
           rdf:resource="http://purl.org/dc/dcmitype/StillImage" />
      </cc:Work>
    </rdf:RDF>
  </metadata>
  <sodipodi:namedview
     pagecolor="#ffffff"
     bordercolor="#666666"
     borderopacity="1"
     objecttolerance="10"
     gridtolerance="10"
     guidetolerance="10"
     inkscape:pageopacity="0"
     inkscape:pageshadow="2"
     inkscape:window-width="1920"
     inkscape:window-height="1017"
     id="namedview17"
     showgrid="false"
     inkscape:zoom="3.4650748"
     inkscape:cx="19.768513"
     inkscape:cy="75.091878"
     inkscape:window-x="-8"
     inkscape:window-y="-8"
     inkscape:window-maximized="1"
     inkscape:current-layer="svg15"
     inkscape:document-rotation="0" />
  <g
     id="g849">
    <path
       d="m 74.5,22.4 c -2.8,-4.1 -6.3,-6.2 -9.3,-6.7 -0.1,0 -0.3,0 -0.4,-0.1 -0.1,0 -0.1,0 -0.2,0 -1.2,-0.2 -2.5,-0.2 -3.7,-0.1 -3.7,0.2 -13,2.8 -13,18.5 0,0 -7.4,0.2 -14.2,0 -1,0 -11.1,0.1 -11.1,7.3 0,1.8 0,4 -0.2,6 -0.1,0.5 -0.2,1 -0.3,1.5 0,0.1 -0.1,0.3 -0.1,0.4 0,0.1 0,0.1 -0.1,0.2 -0.2,0.6 -0.4,1.1 -0.7,1.6 0,0 0,0 0,0.1 -0.1,0.1 -0.1,0.2 -0.2,0.3 l -0.1,0.1 c -0.6,0.8 -1.5,1.5 -2.6,1.8 -0.1,0 -0.3,0.1 -0.4,0.1 h -0.1 c -0.7,0.2 -1.5,0.2 -2.5,0.2 C 10.3,53.2 6.9,48.9 6.9,38.4 7,20.2 22.6,6.3 40,6.3 c 10.6,0 18.3,5.1 20.9,7.7 3.8,0 7.7,0.6 10.7,3.2 C 69.8,14.1 66,10.4 65.6,10 58.5,3.4 48.8,0 39.8,0 17.9,0 0,18.3 0,38.5 c 0,4.6 1.2,12.1 4,16.3 2.8,4.1 6.3,6.2 9.2,6.7 0.1,0 0.6,0.1 0.6,0.1 1.2,0.2 2.5,0.2 3.7,0.1 0.2,0 0.5,-0.1 0.8,-0.1 1.3,-0.2 2.5,-0.5 3.3,-0.9 4.8,-2.3 6.9,-6.4 7.7,-11.2 0.7,-2.4 1.2,-7 1.2,-10.4 l 17.2,-0.3 c 0,0 4.6,0.6 8.1,-3 0,-4.2 -0.1,-7.2 1.3,-9.7 0,0 0.3,-0.5 0.4,-0.5 0.6,-0.8 1.5,-1.5 2.6,-1.8 0.1,0 0.5,-0.1 0.5,-0.1 0.7,-0.2 1.5,-0.2 2.5,-0.2 5,0.4 8.4,4.7 8.4,15.2 0,18.3 -15.6,32.2 -33,32.3 -10.6,0 -18.3,-5.1 -20.9,-7.7 -3.8,0 -7.7,-0.6 -10.7,-3.2 1.8,3.1 5.6,6.8 6,7.2 7.1,6.6 16.8,10.1 25.8,10.1 21.9,0 39.8,-18.3 39.8,-38.5 0,-4.8 -1.2,-12.3 -4,-16.5 z"
       fill="#2e85ec"
       id="path4" />
    <path
       d="m 64.4,15.7 c -0.8,-0.1 -3.5,-0.4 -5.8,0.1 -1.1,0.3 -2.5,0.8 -3.4,1.3 -1.4,0.8 -3.4,2.2 -4.9,5.1 -1.4,2.6 -2.6,6.1 -2.6,11.4 H 30.6 c 0,-3 0,-9.2 0,-9.2 v -8.9 c 0,0 -8.2,2.9 -8.2,9.8 0,6.7 0,17.4 0,21.3 0,6.1 -2,14.9 -9.1,14.9 0,0 0.8,0.2 2,0.2 1.2,0 2.8,-0.1 4.3,-0.4 1.1,-0.2 2.4,-0.6 3.5,-1.3 2.3,-1.4 4.6,-3.5 6.1,-7.5 0.9,-2.6 1.4,-6.1 1.4,-10.4 0,-0.4 0,-0.8 0,-1.3 h 17.1 c 0,7.2 0,15.8 0,18.1 0,0.1 0,2.8 0,2.8 0,0 8.1,-2.9 8.1,-9.8 0,-4.4 0,-18.9 0,-21.4 0,-0.4 0,-0.8 0,-1.2 0.2,-6 2.3,-13.6 8.9,-13.6 0.2,0.1 -0.2,0 -0.3,0 z"
       fill="#2e85ec"
       id="path6" />
  </g>
  <defs
     id="defs13">
    <clipPath
       id="clip0_782_2991">
      <rect
         width="280.60001"
         height="77.199997"
         fill="#ffffff"
         id="rect10"
         x="0"
         y="0" />
    </clipPath>
  </defs>
</svg>
